<?xml version="1.0" standalone="no"?>
<!DOCTYPE svg PUBLIC "-//W3C//DTD SVG 20010904//EN"
 "http://www.w3.org/TR/2001/REC-SVG-20010904/DTD/svg10.dtd">
<svg version="1.0" xmlns="http://www.w3.org/2000/svg"
 width="260.000000pt" height="260.000000pt" viewBox="0 0 260.000000 260.000000"
 preserveAspectRatio="xMidYMid meet">
<metadata>
Created by potrace 1.14, written by Peter Selinger 2001-2017
</metadata>
<g transform="translate(0.000000,260.000000) scale(0.100000,-0.100000)"
fill="#000000" stroke="none">
<path d="M36 2569 c-24 -19 -26 -26 -26 -104 0 -127 3 -129 176 -131 179 -2
175 -2 132 -24 -55 -30 -157 -128 -199 -193 -56 -87 -86 -185 -87 -289 -2
-235 93 -393 335 -558 l81 -55 0 -352 c0 -224 -4 -353 -10 -353 -21 0 -90 64
-124 114 -37 55 -76 165 -95 270 -7 38 -20 73 -30 82 -26 23 -97 21 -122 -4
-18 -18 -19 -37 -19 -375 0 -337 -1 -356 -19 -373 -16 -14 -19 -31 -19 -103 1
-57 5 -92 14 -104 13 -17 50 -18 753 -14 704 3 742 5 833 25 138 30 223 58
330 109 225 108 402 285 522 522 38 75 92 229 103 292 3 18 8 35 10 39 12 19
20 150 20 325 0 171 -4 216 -23 309 -66 309 -220 561 -447 733 -125 96 -344
175 -555 202 -47 6 -103 14 -125 17 -22 3 -342 8 -712 10 -663 3 -671 3 -697
-17z m1442 -345 c198 -66 368 -218 456 -408 32 -68 62 -151 70 -192 3 -10 9
-39 15 -64 5 -25 13 -85 17 -135 3 -49 7 -94 8 -100 0 -5 -10 -8 -24 -5 -14 3
-54 4 -89 4 -52 -1 -76 -8 -130 -36 l-66 -35 0 217 c0 202 -2 220 -20 240 -19
20 -25 21 -230 18 l-211 -3 -1 269 0 268 65 -6 c36 -4 99 -18 140 -32z m-1030
-309 c0 -91 -3 -165 -8 -165 -13 0 -70 91 -72 114 0 12 -2 35 -3 51 -1 17 4
47 11 68 13 37 53 95 65 96 4 1 7 -73 7 -164z m586 5 c32 -61 59 -153 72 -245
10 -67 27 -85 84 -85 27 0 52 5 55 11 5 7 12 5 23 -5 10 -8 29 -18 45 -21 15
-4 30 -11 33 -16 4 -7 7 -294 4 -474 l0 -40 -33 58 c-47 82 -123 156 -246 239
-58 39 -110 74 -114 78 -7 6 -12 484 -7 605 1 16 59 -56 84 -105z m827 -884
c5 -16 8 -105 7 -198 0 -93 2 -171 5 -175 12 -11 -118 -167 -132 -158 -5 3 -7
439 -2 481 0 6 17 28 37 48 43 44 74 45 85 2z m-849 -231 c25 -46 33 -152 15
-193 -17 -41 -57 -100 -70 -105 -9 -3 -11 16 -10 67 1 39 2 127 2 196 l1 125
21 -25 c11 -14 29 -43 41 -65z m339 -317 c1 -86 -5 -102 -44 -113 -21 -7 -37
-21 -47 -41 -14 -28 -18 -30 -66 -30 l-52 1 62 60 c64 62 136 159 136 184 0 8
2 12 5 9 3 -3 6 -34 6 -70z m-1026 -203 c54 -16 58 -18 36 -26 -32 -13 -151
-19 -151 -8 0 4 5 20 10 34 7 18 15 25 28 21 9 -2 44 -12 77 -21z"/>
</g>
</svg>
